name GIL12_slow4Moments.mot
datacolumns 7
datarows 33
range 0.23333336 0.50000000
endheader

                time	          RHipMoment	          LHipMoment	         RKneeMoment	         LKneeMoment	        RAnkleMoment	        LAnkleMoment	
          0.23333336	        210.74859619	         -3.99725318	        442.45755005	        -35.25870895	         12.12400723	        -22.34153938	
          0.24166669	        195.01237488	         -4.21494246	        436.15704346	        -25.16165352	         12.89669132	        -23.35083199	
          0.25000003	        183.28746033	         -9.51071835	        429.81649780	        -15.99250984	         14.03674030	        -23.45242882	
          0.25833336	        174.21244812	        -20.25884056	        425.12429810	         -8.59014225	         14.55364418	        -22.52909088	
          0.26666668	        161.86734009	        -32.37886429	        422.80639648	         -3.51595902	         14.49363518	        -20.52781677	
          0.27500004	        150.77993774	        -43.83476257	        419.65234375	         -0.95616114	         14.42505264	        -17.51675987	
          0.28333336	        136.78988647	        -49.37450790	        417.75653076	         -0.58476663	         13.97683048	        -13.73874283	
          0.29166669	        121.89082336	        -49.99921036	        415.99386597	         -1.70030975	         12.55132103	         -9.62195492	
          0.30000001	        109.31055450	        -47.47909164	        413.23660278	         -3.63001108	         11.87200451	         -5.70333385	
          0.30833337	         96.70281982	        -44.25866318	        410.22515869	         -5.97246265	         10.55698490	         -2.49129224	
          0.31666669	         88.43362427	        -40.91026306	        405.04101563	         -8.61950874	          9.83039284	         -0.33025178	
          0.32500002	         75.13009644	        -38.43705750	        402.04507446	        -11.53439045	          9.20730495	          0.68504095	
          0.33333337	         66.21023560	        -34.96269989	        397.59811401	        -14.56517887	          8.46395683	          0.71325588	
          0.34166670	         56.17206192	        -33.79825592	        392.90438843	        -17.35794640	          8.02565670	          0.08642852	
          0.35000002	         47.31214142	        -33.95977020	        387.56011963	        -19.41443253	          8.71574974	         -0.81664854	
          0.35833335	         38.27373505	        -34.93788147	        384.22482300	        -20.29773712	          9.08852577	         -1.68753624	
          0.36666667	         32.58342743	        -35.31274033	        379.31851196	        -19.89447212	         10.82007027	         -2.34887409	
          0.37500003	         23.75171471	        -35.99868774	        376.25219727	        -18.48359299	         11.92537117	         -2.75462842	
          0.38333336	         17.29668808	        -36.65359116	        372.23373413	        -16.59659767	         13.88516140	         -2.97292304	
          0.39166671	          7.95251274	        -37.23730850	        369.35894775	        -14.75605583	         16.06087303	         -3.15615988	
          0.40000004	          1.48836613	        -36.53649902	        364.29293823	        -13.21265507	         18.88446426	         -3.47269773	
          0.40833336	         -5.54664993	        -36.44805145	        360.29644775	        -11.88410854	         20.70779419	         -4.02567482	
          0.41666669	        -12.45374012	        -37.39452362	        356.27575684	        -10.65364075	         23.35672379	         -4.81616020	
          0.42500001	        -18.89946175	        -37.51398849	        352.13839722	         -9.73279858	         26.66315079	         -5.77180243	
          0.43333334	        -25.40028381	        -35.17161942	        348.78164673	         -9.58294773	         30.75967026	         -6.78789091	
          0.44166669	        -31.21238518	        -30.69591904	        345.79833984	        -10.56435394	         35.42616653	         -7.73494434	
          0.45000002	        -37.81371689	        -26.81704903	        344.12451172	        -12.75477505	         40.03421402	         -8.48051834	
          0.45833337	        -41.04868317	        -25.20390320	        340.96850586	        -15.87405491	         45.22787857	         -8.94495487	
          0.46666670	        -48.23099899	        -26.66980743	        339.90927124	        -19.15270996	         51.05941010	         -9.13362694	
          0.47500002	        -52.31740570	        -33.62217712	        336.94216919	        -21.36274529	         56.90811539	         -9.11799240	
          0.48333335	        -56.75127411	        -46.82017136	        333.53463745	        -21.44608116	         63.14450836	         -8.99011993	
          0.49166670	        -61.88342667	        -63.29862976	        329.27380371	        -19.43233299	         70.09474182	         -8.84554482	
          0.50000000	        -68.20411682	        -78.25807190	        323.48052979	        -16.46663284	         78.41155243	         -8.78490162	
